<?xml version="1.0" standalone="no"?>
<!DOCTYPE svg PUBLIC "-//W3C//DTD SVG 20010904//EN"
 "http://www.w3.org/TR/2001/REC-SVG-20010904/DTD/svg10.dtd">
<svg version="1.0" xmlns="http://www.w3.org/2000/svg"
 width="153.000000pt" height="153.000000pt" viewBox="0 0 153.000000 153.000000"
 preserveAspectRatio="xMidYMid meet">
<metadata>
Created by potrace 1.14, written by Peter Selinger 2001-2017
</metadata>
<g transform="translate(0.000000,153.000000) scale(0.100000,-0.100000)"
fill="#000000" stroke="none">
<path d="M596 1512 c-3 -2 -26 -6 -53 -9 -38 -3 -175 -31 -238 -47 -41 -11
-106 -33 -134 -47 l-34 -16 0 -331 c0 -182 4 -352 8 -379 4 -26 7 -50 7 -53 1
-3 12 -36 25 -74 93 -266 261 -442 498 -521 72 -25 88 -25 154 -4 54 17 177
79 200 100 11 11 24 19 28 19 13 0 136 132 167 179 48 75 86 148 79 155 -3 3
-2 6 4 6 9 0 17 25 24 68 0 4 4 12 9 17 25 31 33 146 34 474 l1 343 -25 13
c-40 20 -188 65 -262 80 -16 3 -38 7 -50 9 -68 14 -139 19 -281 21 -86 1 -159
0 -161 -3z"/>
</g>
</svg>
