<svg width="452" height="643" viewBox="0 0 452 643" fill="none" xmlns="http://www.w3.org/2000/svg">
<path opacity="0.43" d="M333.7 31.344C343.95 29.164 354.36 26.684 364.9 24.134C375.44 21.234 386.08 18.824 396.76 17.134C407.38 15.914 417.94 15.8541 428.31 17.0541C438.48 19.1741 448.28 22.644 457.53 27.394C466.34 32.974 474.37 39.594 481.42 47.064C487.78 54.904 492.98 63.234 496.89 71.824C500.09 80.274 502.05 88.704 502.88 96.984C503.43 104.774 503.32 112.294 502.91 119.524C503.22 126.164 504.07 132.564 505.96 138.784C509.71 144.514 515.23 150.194 522.77 155.904C532.56 161.304 544.24 166.884 557.44 172.704C571.68 178.374 586.1 184.404 599.76 190.804C611.92 197.164 621.52 203.964 627.71 211.184C630.42 218.404 629.08 226.064 623.82 234.144C615.87 242.224 605.54 250.714 594.07 259.584C583.46 268.464 574.39 277.714 568.08 287.334C565.85 296.954 567.45 306.724 572.48 316.644C580.74 326.594 590.55 336.724 600.63 347.034C610.37 357.424 617.95 368.044 622.5 378.894C624.01 389.864 621.66 401.094 615.65 412.554C606.71 424.114 595.12 435.874 581.75 447.744C567.53 459.574 553.13 471.364 539.31 482.924C526.69 494.164 515.58 504.894 506.19 514.894C498.75 524.134 492.96 532.284 488.57 539.114C482.2 549.874 473.27 547.694 467.65 542.954C463.15 540.284 457.63 538.094 451.16 536.844C444.28 537.414 436.58 539.614 428.2 543.644C419.55 549.904 410.38 557.884 400.81 567.274C391.13 577.924 381.17 588.924 371.02 599.534C360.84 609.364 350.53 617.364 340.13 622.814C329.73 625.704 319.48 625.304 309.39 621.734C299.28 615.704 289.28 607.244 279.37 596.984C269.39 585.894 259.45 574.324 249.52 562.964C239.46 552.594 229.36 543.404 219.22 535.704C208.95 529.934 198.64 525.814 188.32 523.194C177.95 522.294 167.66 522.374 157.53 523.064C147.56 524.554 137.92 525.924 128.74 526.824C119.98 527.564 111.87 527.304 104.55 525.894C97.8196 523.744 91.9796 520.264 87.0496 515.484C82.6696 509.874 79.0996 503.064 76.2596 495.234C73.5896 486.744 71.3496 477.454 69.3696 467.574C67.0296 457.294 64.6196 446.634 62.0196 435.764C58.7096 424.714 55.0996 413.604 51.2396 402.524C46.7896 391.414 42.3296 380.404 38.0796 369.574C33.8296 358.754 30.2296 348.124 27.5296 337.734C25.4596 327.344 24.5996 317.184 25.0196 307.274C26.1996 297.354 28.4896 287.904 31.6396 278.904C34.9996 269.874 38.7496 261.274 42.6596 253.094C46.0996 244.854 49.3496 236.984 52.3296 229.464C54.5596 221.834 56.5496 214.484 58.3996 207.374C59.7896 200.064 61.3696 192.884 63.2996 185.804C65.3396 178.394 68.0996 170.964 71.6796 163.454C75.8096 155.524 80.9196 147.424 86.9796 139.134C93.6796 130.414 101.25 121.504 109.54 112.454C118.26 103.124 127.49 93.784 137.07 84.574C146.74 75.414 156.56 66.644 166.42 58.454C176.13 50.744 185.77 43.9141 195.31 38.1341C204.59 33.1641 213.78 29.3941 222.91 26.9041C231.78 25.2141 240.65 24.664 249.58 25.144C258.33 25.974 267.21 27.4241 276.29 29.2641C285.27 30.7041 294.51 32.0341 304.06 33.0541C313.57 33.0641 323.44 32.504 333.69 31.344" stroke="url(#paint0_linear_106_856)" stroke-width="2" stroke-linecap="round" stroke-dasharray="5 5"/>
<path opacity="0.37" d="M356.814 44.8326C366.9 43.3997 377.046 41.6802 387.178 39.8796C397.325 37.7291 407.402 35.9948 417.304 34.8997C427.089 34.1773 436.569 34.506 445.618 35.9772C454.369 38.2594 462.52 41.8024 469.916 46.5152C476.835 52.0264 482.841 58.5357 487.808 65.8538C492.194 73.592 495.482 81.8242 497.656 90.3585C499.392 98.8519 500.214 107.371 500.291 115.787C500.473 123.86 500.429 131.717 500.522 139.342C501.629 146.528 503.589 153.544 506.781 160.446C511.822 166.997 518.566 173.558 527.089 180.205C537.482 186.634 549.305 193.263 562.115 200.103C575.447 206.778 588.473 213.693 600.329 220.826C610.478 227.739 617.956 234.833 622.116 242.084C623.087 249.06 620.358 256.185 614.138 263.485C605.676 270.597 595.209 277.998 583.825 285.735C573.36 293.527 564.332 301.842 557.779 310.742C554.946 319.915 555.54 329.531 559.262 339.558C565.986 349.827 574.249 360.426 582.937 371.265C591.573 382.14 598.475 393.144 602.829 404.168C604.615 415.071 602.935 425.94 597.843 436.718C589.967 447.309 579.373 457.779 566.767 468.076C552.983 478.14 538.556 487.948 524.237 497.373C510.605 506.425 498.057 514.902 486.906 522.615C477.414 529.684 469.499 535.721 463.042 540.569C452.08 547.012 441.356 542.155 436.781 537.812C430.996 534.837 414.27 535.74 403.38 541.187C395.479 547.305 386.866 554.857 377.651 563.54C368.246 573.221 358.428 583.064 348.304 592.414C338.196 600.973 327.941 607.777 317.623 612.201C307.471 614.291 297.543 613.35 287.861 609.488C278.329 603.361 268.959 594.93 259.735 584.735C250.524 573.638 241.336 561.932 232.118 550.223C222.788 539.239 213.346 529.148 203.786 520.283C194.09 513.082 184.289 507.357 174.45 503.023C164.574 500.341 154.795 498.708 145.233 497.822C135.865 497.892 126.927 498.123 118.551 498.193C110.627 498.395 103.461 497.949 97.1657 496.662C89.0653 493.544 78.0853 480.949 74.8169 471.586C72.9374 464.415 71.3971 456.417 70.0557 447.731C68.2936 438.614 66.4179 428.978 64.3266 418.986C61.5327 408.723 58.4629 398.251 55.16 387.672C51.344 376.977 47.5473 366.293 43.9844 355.705C40.492 345.113 37.6495 334.687 35.7127 324.495C34.4136 314.358 34.2996 304.476 35.4276 294.891C37.3238 285.361 40.2776 276.327 44.0611 267.752C48.0755 259.174 52.4827 250.994 57.0441 243.186C61.1709 235.287 65.1162 227.686 68.7732 220.335C71.7004 212.813 74.3443 205.471 76.7766 198.285C78.6958 190.841 80.6891 183.483 82.9205 176.162C85.1637 168.531 87.9996 160.882 91.5416 153.173C95.5578 145.136 100.483 137.002 106.317 128.773C112.793 120.268 120.153 111.715 128.287 103.157C136.939 94.4852 146.172 85.9645 155.857 77.7164C165.75 69.6533 175.888 62.0988 186.117 55.2224C196.299 48.884 206.436 43.4647 216.459 39.09C226.278 35.4828 235.955 33.0285 245.478 31.7562C254.753 31.1682 263.934 31.6162 273.05 32.9818C282 34.5763 290.973 36.7038 300.033 39.1482C309.034 41.1573 318.215 43.0288 327.618 44.5951C337.058 45.2117 346.787 45.2873 356.804 44.8319" stroke="url(#paint1_linear_106_856)" stroke-width="2" stroke-linecap="round" stroke-dasharray="6 9"/>
<path opacity="0.31" d="M375.177 59.74C384.976 59.0201 394.715 58.0089 404.306 56.896C413.93 55.414 423.314 54.2716 432.339 53.664C441.221 53.3494 449.593 53.9318 457.347 55.5174C464.768 57.8133 471.415 61.2214 477.181 65.7065C482.491 70.9245 486.829 77.0754 490.15 83.9908C493.03 91.379 494.938 99.2856 495.961 107.521C496.798 115.851 497.033 124.298 496.854 132.747C497.104 141.014 497.478 149.198 498.291 157.273C500.3 165.103 503.329 172.865 507.644 180.609C513.682 188.162 521.235 195.79 530.284 203.549C540.77 211.148 552.245 218.898 564.223 226.8C576.273 234.48 587.626 242.232 597.523 250.001C605.597 257.369 611.014 264.673 613.269 271.841C612.661 278.542 608.744 285.147 601.765 291.691C592.958 297.945 582.471 304.375 571.263 311.106C561.019 317.954 552.082 325.412 545.34 333.626C541.947 342.305 541.61 351.651 544.067 361.595C549.311 371.965 556.04 382.768 563.306 393.839C570.755 404.967 576.869 416.117 580.882 427.12C582.785 437.834 581.65 448.248 577.44 458.265C570.655 467.857 561.215 477.011 549.678 485.706C536.739 493.959 522.84 501.722 508.646 508.929C494.7 515.676 481.44 521.783 469.231 527.099C458.343 531.866 448.849 535.71 440.766 538.502C425.431 540.728 411.49 533.77 407.113 530.027C401.939 527.98 386.964 530.591 376.934 536.358C369.538 542.348 361.333 549.486 352.432 557.474C343.32 566.24 333.695 574.984 323.722 583.123C313.828 590.496 303.771 596.169 293.696 599.617C283.909 600.965 274.417 599.526 265.234 595.415C256.357 589.215 247.708 580.847 239.25 570.768C230.924 559.768 222.63 548.036 214.323 536.12C205.945 524.699 197.446 513.918 188.819 504.108C180.042 495.711 171.165 488.592 162.249 482.741C153.284 478.438 144.431 475.202 135.829 472.829C127.412 471.503 119.445 470.564 112.089 469.731C102.079 468.886 86.9766 464.56 82.0175 460.291C78.3849 454.432 74.0892 437.45 72.5694 426.599C71.134 418.638 69.5808 410.085 67.8136 401.047C65.3871 391.672 62.7369 381.953 59.8955 372.015C56.6255 361.895 53.4388 351.686 50.5308 341.506C47.7373 331.302 45.6312 321.236 44.4134 311.387C43.8505 301.621 44.4305 292.129 46.2186 282.949C48.7704 273.867 52.3323 265.283 56.6881 257.154C61.304 249.043 66.3135 241.29 71.4703 233.851C76.2607 226.289 80.8688 218.944 85.2113 211.763C88.8577 204.362 92.1988 197.049 95.2895 189.791C97.8328 182.264 100.355 174.744 103.02 167.214C105.591 159.418 108.632 151.587 112.261 143.739C116.238 135.648 121.045 127.543 126.677 119.455C132.894 111.237 139.968 103.1 147.817 95.1245C156.195 87.1933 165.197 79.5628 174.704 72.3575C184.49 65.4646 194.562 59.188 204.799 53.6721C215.053 48.7445 225.297 44.7446 235.443 41.7914C245.437 39.5538 255.267 38.394 264.894 38.3163C274.326 38.8271 283.589 40.2431 292.708 42.4569C301.707 44.8051 310.645 47.5889 319.58 50.6047C328.518 53.1665 337.56 55.5712 346.736 57.6718C356.011 58.8573 365.498 59.5476 375.168 59.7386" stroke="url(#paint2_linear_106_856)" stroke-width="2" stroke-linecap="round" stroke-dasharray="2 5"/>
<path opacity="0.32" d="M388.503 75.2256C397.899 75.1466 407.123 74.7749 416.092 74.2565C425.109 73.3699 433.746 72.7291 441.895 72.505C449.895 72.4946 457.254 73.2361 463.861 74.8083C470.149 77.0077 475.567 80.1656 480.055 84.2694C484.149 89.0659 487.282 94.7197 489.479 101.113C491.384 108.007 492.485 115.454 492.917 123.3C493.384 131.368 493.511 139.68 493.529 148.122C494.157 156.582 495.148 165.11 496.784 173.685C499.649 182.206 503.562 190.799 508.716 199.475C515.364 208.093 523.282 216.851 532.34 225.73C542.427 234.483 553.077 243.326 563.802 252.206C574.259 260.762 583.714 269.216 591.533 277.482C597.53 285.183 600.946 292.565 601.445 299.576C599.419 305.963 594.483 312.042 586.916 317.893C577.89 323.391 567.479 328.959 556.528 334.8C546.55 340.829 537.739 347.519 530.866 355.043C526.977 363.198 525.78 372.157 527.065 381.842C530.902 392.076 536.141 402.826 542.007 413.853C548.251 424.972 553.497 436.03 557.075 446.801C558.985 457.194 558.311 467.052 554.93 476.268C549.258 484.869 541.089 492.759 530.84 499.907C519.119 506.431 506.209 512.25 492.724 517.322C479.128 521.859 465.845 525.654 453.274 528.662C441.654 531.189 431.201 532.902 421.993 533.727C410.71 533.923 394.999 529.976 389.428 526.437C384.777 523.137 374.47 518.837 367.793 519.255C362.743 521.341 356.845 524.564 350.075 528.94C342.895 534.752 334.923 541.438 326.229 548.725C317.327 556.601 307.924 564.288 298.175 571.298C288.539 577.544 278.8 582.172 269.076 584.728C259.76 585.386 250.814 583.516 242.239 579.2C234.101 572.992 226.266 564.754 218.692 554.873C211.346 544.07 204.094 532.449 196.881 520.508C189.665 508.863 182.356 497.649 174.951 487.171C167.43 477.854 159.807 469.63 152.173 462.549C144.482 456.878 136.904 452.254 129.57 448.541C122.38 445.923 115.633 443.861 109.457 442.136C101.066 440.344 88.6969 435.836 84.7796 432.264C81.8867 427.542 78.4657 413.562 77.1644 404.333C75.8495 397.453 74.4203 389.915 72.8244 381.82C70.626 373.339 68.2553 364.423 65.7988 355.191C62.9785 345.748 60.3273 336.138 58.0044 326.474C55.8582 316.798 54.4209 307.202 53.8711 297.808C53.9807 288.534 55.2006 279.519 57.6029 270.809C60.7265 262.265 64.8264 254.175 69.7006 246.528C74.8549 238.911 80.3932 231.6 86.1101 224.554C91.5192 217.369 96.7968 210.32 101.81 203.358C106.194 196.137 110.27 188.922 114.063 181.687C117.308 174.151 120.457 166.583 123.658 158.965C126.676 151.104 130.028 143.211 133.846 135.338C137.904 127.301 142.641 119.338 148.109 111.501C154.051 103.643 160.784 96.007 168.239 88.6788C176.176 81.536 184.734 74.8334 193.796 68.6891C203.156 62.9668 212.845 57.9494 222.713 53.768C232.655 50.1957 242.628 47.5712 252.509 45.9496C262.296 45.0034 271.927 45.067 281.341 46.0965C290.616 47.628 299.704 49.9375 308.595 52.921C317.431 55.9742 326.157 59.3515 334.825 62.9005C343.554 65.9719 352.322 68.8672 361.154 71.4595C370.162 73.1893 379.282 74.4421 388.494 75.2235" stroke="url(#paint3_linear_106_856)" stroke-width="2" stroke-linecap="round" stroke-dasharray="10 9"/>
<path opacity="0.18" d="M397.073 90.4746C405.973 90.9818 414.614 91.1639 422.934 91.1594C431.319 90.7883 439.231 90.572 446.592 90.6436C457.056 91.2913 473.711 96.6901 479.618 101.817C482.92 106.157 485.349 111.286 486.967 117.127C488.417 123.513 489.238 130.487 489.576 137.946C490.123 145.757 490.524 153.931 491.028 162.396C492.224 171.061 493.915 179.953 496.328 189.054C499.884 198.268 504.426 207.674 510.038 217.265C516.858 226.893 524.655 236.67 533.241 246.56C542.466 256.334 551.873 266.087 561.016 275.744C569.624 284.985 577.035 293.941 582.742 302.487C586.687 310.356 588.219 317.682 587.102 324.448C583.832 330.487 578.033 336.053 570.021 341.248C560.886 346.076 550.628 350.902 539.98 355.958C530.291 361.261 521.655 367.244 514.685 374.085C510.37 381.684 508.405 390.152 508.633 399.39C511.163 409.306 515.018 419.752 519.543 430.475C524.595 441.35 528.971 452.082 532.058 462.451C533.898 472.375 533.594 481.616 530.982 490.021C526.409 497.681 519.578 504.405 510.79 510.157C500.532 515.16 489 519.241 476.682 522.408C463.983 524.985 451.293 526.743 439.006 527.68C427.308 528.205 416.489 527.996 406.694 527.052C397.917 525.904 390.216 524.131 383.516 521.815C375.174 518.304 362.042 511.094 356.041 508.449C349.776 507.936 334.131 513.064 324.235 519.046C316.991 524.568 309.03 530.736 300.417 537.288C291.639 544.26 282.419 550.927 272.894 556.85C263.571 562.041 254.191 565.705 244.928 567.456C236.145 567.514 227.799 565.272 219.94 560.809C212.588 554.67 205.639 546.638 199.056 537.058C192.775 526.575 186.688 515.244 180.717 503.477C174.806 491.863 168.872 480.471 162.922 469.637C156.865 459.75 150.757 450.755 144.658 442.772C138.478 436.036 132.415 430.302 126.584 425.489C118.102 420.231 103.815 413.342 98.406 410.702C91.2613 404.603 85.3793 389.259 84.0354 381.322C82.6842 375.35 81.2393 368.695 79.6786 361.433C77.5933 353.791 75.4218 345.655 73.2409 337.121C70.8052 328.388 68.6067 319.411 66.8193 310.346C65.2406 301.278 64.4076 292.26 64.4669 283.396C65.1629 274.707 66.9542 266.261 69.8831 258.094C73.5228 250.132 78.0908 242.596 83.4059 235.463C89.0272 228.388 95.0389 221.583 101.267 214.965C107.237 208.23 113.118 201.553 118.797 194.89C123.898 187.956 128.706 180.958 133.232 173.888C137.205 166.502 141.054 159.038 144.86 151.51C148.403 143.739 152.164 135.969 156.259 128.233C160.461 120.414 165.197 112.728 170.53 105.247C176.199 97.8629 182.553 90.8125 189.534 84.1835C196.909 77.8458 204.848 72.0775 213.253 66.9648C221.943 62.3408 230.944 58.5147 240.131 55.5546C249.418 53.2171 258.753 51.8304 268.018 51.4022C277.248 51.5989 286.335 52.7222 295.231 54.717C304.039 57.1236 312.672 60.2081 321.102 63.8482C329.541 67.4911 337.855 71.3889 346.08 75.3757C354.43 78.8987 362.787 82.2157 371.15 85.2223C379.745 87.4317 388.401 89.1797 397.063 90.4718" stroke="url(#paint4_linear_106_856)" stroke-width="2" stroke-linecap="round" stroke-dasharray="3 8"/>
<path opacity="0.75" d="M401.667 104.929C409.992 105.936 418.026 106.601 425.707 107.04C433.478 107.118 440.753 107.269 447.447 107.612C456.977 108.497 471.876 113.616 477.083 118.26C480.024 122.198 482.215 126.872 483.723 132.243C485.156 138.194 486.111 144.779 486.774 151.927C487.7 159.545 488.634 167.636 489.77 176.162C491.593 185.048 493.944 194.299 496.97 203.884C500.973 213.71 505.815 223.835 511.498 234.194C518.069 244.657 525.313 255.26 532.992 265.928C540.97 276.45 548.815 286.838 556.13 296.988C562.733 306.642 568.047 315.832 571.657 324.438C573.637 332.263 573.42 339.397 570.859 345.807C566.497 351.436 560.004 356.485 551.665 361.078C542.512 365.308 532.474 369.478 522.182 373.821C512.803 378.49 504.347 383.807 497.361 389.964C492.684 396.97 490.053 404.846 489.34 413.502C490.705 422.912 493.294 432.847 496.583 443.05C500.517 453.469 504.03 463.702 506.62 473.488C508.318 482.861 508.307 491.434 506.415 499.039C502.895 505.853 497.404 511.568 490.148 516.144C481.503 519.889 471.581 522.557 460.771 524.195C449.401 525.18 437.797 525.269 426.316 524.529C415.094 523.405 404.446 521.618 394.573 519.232C385.398 516.773 377.103 513.891 369.671 510.688C362.937 507.763 356.877 504.745 351.346 501.793C343.732 498.566 328.764 496.01 320.476 497.393C314.516 499.836 307.958 503.123 300.765 507.179C293.24 512.253 285.11 517.786 276.466 523.524C267.7 529.569 258.601 535.214 249.326 540.092C240.282 544.287 231.306 547.047 222.546 548.065C214.331 547.6 206.652 545.073 199.555 540.554C193.03 534.541 187.02 526.811 181.472 517.651C176.294 507.627 171.422 496.745 166.78 485.384C162.251 474.032 157.796 462.77 153.401 451.894C148.923 441.765 144.454 432.364 140.029 423.83C135.484 416.373 131.051 409.829 126.821 404.181C120.557 397.604 109.981 388.555 105.967 385.246C100.285 378.968 94.8269 365.132 93.278 358.105C91.7902 352.795 90.2561 346.828 88.6586 340.252C86.607 333.317 84.5686 325.854 82.6154 317.986C80.4971 309.929 78.6875 301.612 77.3627 293.165C76.2933 284.748 75.9825 276.355 76.5691 268.099C77.7854 260.044 80.0672 252.221 83.4483 244.653C87.5052 237.333 92.4611 230.409 98.1589 223.842C104.151 217.374 110.564 211.123 117.222 205.017C123.684 198.806 130.111 192.604 136.384 186.356C142.153 179.858 147.659 173.232 152.91 166.49C157.61 159.45 162.14 152.294 166.583 145.053C170.698 137.606 174.914 130.143 179.334 122.765C183.723 115.323 188.509 108.08 193.725 101.112C199.152 94.2972 205.095 87.906 211.556 82.0149C218.285 76.4989 225.503 71.6214 233.091 67.4765C240.919 63.8674 249.018 61.0829 257.28 59.1893C265.656 57.913 274.067 57.5553 282.446 58.1235C290.821 59.2548 299.074 61.2365 307.171 63.9918C315.251 67.0818 323.167 70.7616 330.918 74.8919C338.723 78.9891 346.44 83.2671 354.046 87.589C361.861 91.4556 369.652 95.0999 377.44 98.434C385.506 101.04 393.586 103.203 401.645 104.932" stroke="url(#paint5_linear_106_856)" stroke-width="2" stroke-linecap="round" stroke-dasharray="2 5"/>
<path opacity="0.92" d="M403.372 118.353C411.097 119.78 418.53 120.857 425.622 121.692C432.848 122.182 439.582 122.67 445.774 123.286C454.639 124.448 468.63 129.52 473.667 133.849C477.758 139.694 483.113 155.737 485.032 165.846C486.514 173.346 488.073 181.429 489.873 190.048C492.26 199.117 495.109 208.669 498.526 218.641C502.695 228.941 507.482 239.574 512.861 250.473C518.814 261.488 525.115 272.605 531.569 283.725C538.014 294.644 544.096 305.323 549.46 315.623C554.014 325.361 557.258 334.499 558.884 342.897C559.031 350.486 557.242 357.259 553.437 363.201C548.156 368.379 541.124 372.89 532.59 376.889C523.483 380.575 513.715 384.149 503.799 387.855C494.754 391.942 486.534 396.63 479.573 402.105C474.617 408.483 471.428 415.689 469.92 423.641C470.245 432.418 471.722 441.681 473.921 451.193C476.807 460.98 479.514 470.556 481.616 479.673C483.131 488.416 483.348 496.311 482.074 503.184C479.501 509.264 475.287 514.166 469.546 517.832C462.557 520.64 454.352 522.275 445.242 522.78C435.451 522.627 425.259 521.514 414.962 519.565C404.641 517.253 394.63 514.325 385.101 510.89C375.965 507.456 367.471 503.742 359.616 499.876C352.224 496.394 345.39 493.01 338.987 489.841C332.846 487.428 326.894 485.472 320.993 484.087C315.039 483.742 308.883 484.117 302.408 485.271C295.66 487.519 288.476 490.491 280.799 494.097C272.843 498.543 264.447 503.306 255.683 508.155C246.856 513.195 237.845 517.813 228.8 521.68C220.033 524.905 211.46 526.847 203.226 527.208C195.575 526.274 188.571 523.538 182.261 519.041C176.56 513.239 171.477 505.894 166.964 497.26C162.884 487.812 159.222 477.554 155.893 466.777C152.727 455.931 149.735 445.064 146.9 434.455C144.003 424.399 141.162 414.928 138.412 406.177C135.506 398.333 132.696 391.299 130.041 385.091C122.47 372.021 113.739 359.064 111.877 355.528C109.974 351.765 106.591 341.863 104.8 335.342C103.16 330.436 101.508 324.922 99.8694 318.843C97.8413 312.436 95.9191 305.549 94.1725 298.249C92.3261 290.804 90.881 283.102 89.9584 275.262C89.334 267.49 89.4853 259.75 90.5406 252.121C92.1837 244.745 94.8735 237.577 98.6385 230.653C103.019 224.016 108.275 217.751 114.255 211.802C120.522 205.993 127.245 200.367 134.236 194.851C141.089 189.251 147.969 183.641 154.748 177.963C161.091 172.035 167.213 165.963 173.106 159.744C178.477 153.247 183.659 146.609 188.7 139.896C193.355 132.967 198.025 126.054 202.778 119.224C207.388 112.372 212.23 105.735 217.353 99.4218C222.534 93.2989 228.082 87.6266 233.998 82.5257C240.055 77.8174 246.475 73.788 253.177 70.5216C260.035 67.7859 267.102 65.9011 274.302 64.8882C281.571 64.4543 288.89 64.9091 296.177 66.2379C303.488 68.0492 310.719 70.647 317.816 73.9305C324.952 77.4945 331.969 81.5421 338.859 85.9933C345.866 90.3547 352.808 94.862 359.682 99.372C366.803 103.456 373.925 107.32 381.042 110.876C388.478 113.774 395.929 116.274 403.362 118.348" stroke="url(#paint6_linear_106_856)" stroke-width="2" stroke-linecap="round" stroke-dasharray="2 9"/>
<path opacity="0.97" d="M403.455 130.868C410.561 132.646 417.425 134.091 424.002 135.29C430.741 136.168 437.055 137.01 442.898 137.928C451.344 139.473 465.089 144.824 470.344 149.094C474.845 154.763 481.653 170.371 484.495 180.326C486.585 187.776 488.746 195.876 491.103 204.559C493.897 213.761 497.037 223.479 500.58 233.674C504.618 244.215 509.048 255.104 513.793 266.23C518.826 277.454 523.938 288.721 528.941 299.895C533.714 310.821 537.943 321.408 541.359 331.501C543.907 340.991 545.206 349.763 545.017 357.712C543.542 364.845 540.392 371.099 535.557 376.458C529.543 381.114 522.114 385.066 513.519 388.482C504.539 391.645 495.097 394.673 485.595 397.793C476.903 401.327 468.938 405.411 462.065 410.207C456.918 415.932 453.284 422.413 451.136 429.593C450.587 437.621 451.089 446.101 452.323 454.804C454.285 463.843 456.244 472.675 457.873 481.046C459.165 489.133 459.521 496.365 458.767 502.58C455.478 510.213 440.934 518.081 430.298 518.412C422.189 517.569 413.568 515.759 404.677 513.099C395.537 510.1 386.468 506.504 377.623 502.45C368.885 498.43 360.524 494.216 352.575 489.951C344.843 486.109 337.476 482.452 330.426 479.114C323.457 476.511 316.639 474.432 309.846 472.958C302.949 472.439 295.897 472.608 288.614 473.482C281.079 475.31 273.22 477.759 265.038 480.726C256.616 484.371 247.927 488.236 239.033 492.126C230.122 496.11 221.196 499.677 212.381 502.554C203.879 504.85 195.71 505.996 188.008 505.77C180.903 504.435 174.561 501.533 169.001 497.134C164.075 491.6 159.866 484.714 156.343 476.698C153.276 467.94 150.725 458.414 148.626 448.405C146.716 438.236 145.094 427.996 143.696 417.909C142.255 408.198 140.944 398.942 139.732 390.284C138.354 382.332 137.055 375.081 135.863 368.558C133.807 360.264 130.122 347.653 128.595 342.788C125.358 334.472 120.33 320.094 118.366 313.677C116.624 308.936 114.916 303.668 113.268 297.888C111.315 291.852 109.522 285.369 107.995 278.54C106.422 271.607 105.316 264.46 104.782 257.201C104.549 250.058 105.106 242.943 106.554 235.966C108.563 229.257 111.576 222.77 115.624 216.533C120.249 210.596 125.713 205.019 131.875 199.75C138.319 194.632 145.232 189.698 152.441 184.867C159.572 179.971 166.779 175.06 173.935 170.075C180.712 164.864 187.329 159.51 193.748 154.015C199.67 148.242 205.399 142.342 210.956 136.361C216.099 130.18 221.165 124.014 226.21 117.95C231.009 111.857 235.901 105.995 240.929 100.468C245.881 95.1261 251.051 90.2654 256.419 85.9654C261.82 82.0467 267.443 78.8147 273.248 76.3398C279.097 74.3539 285.1 73.2003 291.177 72.8812C297.291 73.0821 303.435 74.1162 309.545 75.9501C315.688 78.21 321.782 81.1709 327.782 84.7509C333.852 88.5388 339.855 92.7676 345.786 97.3209C351.876 101.767 357.945 106.338 364.01 110.895C370.337 115.049 376.71 119.011 383.11 122.693C389.863 125.781 396.649 128.512 403.442 130.872" stroke="url(#paint7_linear_106_856)" stroke-width="2" stroke-linecap="round" stroke-dasharray="3 3"/>
<path opacity="0.11" d="M403.071 142.962C409.578 145.02 415.921 146.796 422.048 148.353C431.348 150.225 448.154 154.148 455.424 156.76C462.078 160.177 472.856 170.356 477.194 177.396C479.974 182.859 482.543 189.028 484.99 195.878C487.595 203.301 490.219 211.386 492.952 220.085C495.963 229.279 499.153 239.012 502.554 249.199C506.206 259.698 510.016 270.51 513.905 281.514C517.826 292.562 521.601 303.577 525.062 314.417C528.144 324.957 530.572 335.073 532.129 344.601C532.858 353.511 532.412 361.642 530.654 368.909C527.794 375.394 523.541 380.975 517.899 385.665C511.369 389.722 503.712 393.09 495.165 395.919C486.407 398.578 477.331 401.084 468.276 403.65C459.967 406.665 452.302 410.158 445.579 414.295C440.309 419.35 436.365 425.079 433.701 431.441C432.426 438.657 432.12 446.285 432.54 454.112C433.666 462.339 434.951 470.37 436.113 477.98C437.351 488.704 435.017 504.645 430.84 509.245C426.81 511.145 421.85 511.84 416.086 511.412C409.601 510.327 402.561 508.287 395.129 505.408C387.309 502.188 379.35 498.383 371.404 494.148C363.319 489.944 355.371 485.579 347.615 481.193C339.832 477.203 332.237 473.44 324.798 470.011C317.272 467.262 309.811 465.026 302.342 463.366C294.685 462.545 286.901 462.353 278.946 462.788C270.745 464.024 262.32 465.782 253.702 467.975C244.898 470.688 235.964 473.567 226.991 476.434C218.041 479.339 209.23 481.858 200.669 483.755C192.443 485.142 184.679 485.556 177.501 484.801C170.913 483.094 165.184 480.085 160.324 475.815C156.093 470.57 152.672 464.193 150.005 456.85C147.824 448.831 146.246 440.141 145.203 430.997C144.383 421.651 143.926 412.179 143.763 402.786C143.588 393.635 143.577 384.825 143.699 376.477C143.634 368.649 143.636 361.408 143.702 354.776C143.404 346.044 142.626 332.05 142.154 326.379C140.067 316.456 135.544 300.412 133.54 293.796C131.825 289.007 130.163 283.778 128.6 278.151C126.793 272.309 125.213 266.127 123.946 259.657C122.683 253.143 121.913 246.467 121.755 239.74C121.892 233.165 122.813 226.659 124.608 220.305C126.916 214.263 130.176 208.456 134.421 202.906C139.199 197.692 144.764 192.823 151 188.26C157.514 183.874 164.491 179.673 171.798 175.587C179.057 171.482 186.427 167.352 193.809 163.183C200.871 158.811 207.815 154.306 214.582 149.689C220.913 144.807 227.039 139.82 232.974 134.759C238.483 129.511 243.851 124.281 249.11 119.148C254.047 113.964 258.964 109.016 263.878 104.41C271 97.9224 285.482 88.0685 292.864 85.0594C300.252 83.4262 315.205 84.686 322.663 87.5233C327.641 89.9982 332.587 93.1036 337.491 96.7622C342.47 100.563 347.437 104.758 352.388 109.24C357.53 113.606 362.703 118.073 367.92 122.546C373.423 126.642 379.03 130.592 384.711 134.293C390.749 137.486 396.872 140.377 403.062 142.956" stroke="url(#paint8_linear_106_856)" stroke-width="2" stroke-linecap="round" stroke-dasharray="2 1"/>
<path opacity="0.15" d="M403.094 155.294C409.031 157.604 414.884 159.69 420.617 161.601C429.395 164.065 445.738 169.192 453.084 172.352C459.981 176.225 471.785 187.026 476.83 194.242C480.065 199.765 483.108 205.954 486.001 212.803C488.951 220.165 491.854 228.163 494.739 236.744C497.733 245.766 500.752 255.277 503.782 265.195C506.857 275.356 509.875 285.761 512.769 296.286C515.501 306.778 517.909 317.169 519.869 327.292C521.351 337.087 522.127 346.389 522.049 355.048C521.198 363.102 519.297 370.357 516.253 376.734C512.31 382.412 507.222 387.197 501.041 391.14C494.171 394.551 486.457 397.304 478.101 399.547C469.638 401.698 460.995 403.705 452.437 405.749C444.537 408.266 437.215 411.195 430.7 414.681C425.398 419.048 421.248 424.028 418.214 429.567C416.35 435.944 415.372 442.687 415.104 449.629C415.496 457.008 416.164 464.23 416.869 471.082C417.11 488.247 408.881 502.157 402.695 502.16C397.666 501.214 392.067 499.34 386.031 496.66C379.508 493.646 372.704 490.052 365.728 486.034C358.458 482.011 351.112 477.82 343.754 473.595C336.19 469.702 328.632 466.001 321.072 462.609C313.304 459.784 305.485 457.417 297.608 455.567C289.469 454.393 281.208 453.775 272.813 453.692C264.163 454.241 255.379 455.225 246.507 456.566C237.48 458.302 228.45 460.161 219.5 461.978C210.622 463.8 202.001 465.288 193.737 466.258C185.836 466.786 178.483 466.502 171.805 465.249C165.717 463.213 160.541 460.123 156.297 456.005C152.664 451.071 149.9 445.211 147.951 438.548C146.482 431.283 145.678 423.452 145.471 415.215C145.506 406.735 145.971 398.124 146.791 389.539C147.599 381.069 148.622 372.832 149.798 364.943C150.785 357.412 151.834 350.336 152.915 343.756C154.068 334.77 155.711 319.65 156.154 313.196C155.933 307.272 154.562 295.758 153.445 289.719C151.641 283.263 147.516 268.591 145.423 260.32C143.883 254.567 142.592 248.562 141.659 242.374C140.756 236.196 140.362 229.934 140.578 223.685C141.08 217.623 142.346 211.687 144.435 205.948C146.981 200.533 150.425 195.383 154.794 190.528C159.622 186.01 165.199 181.859 171.403 178.019C177.867 174.384 184.791 170.95 192.036 167.653C199.269 164.373 206.646 161.099 214.071 157.811C221.243 154.361 228.321 150.818 235.257 147.182C241.801 143.319 248.152 139.365 254.297 135.37C260.018 131.175 265.557 127.007 270.917 122.931C278.357 116.823 292.296 106.137 298.915 101.969C305.235 98.6991 317.599 95.8189 323.647 96.3591C329.582 98.0964 341.306 105.212 347.124 110.315C351.09 113.968 355.088 117.966 359.114 122.247C363.333 126.383 367.655 130.633 372.065 134.898C376.777 138.838 381.637 142.677 386.628 146.339C391.979 149.545 397.475 152.536 403.086 155.289" stroke="url(#paint9_linear_106_856)" stroke-width="2" stroke-linecap="round" stroke-dasharray="7 1"/>
<path opacity="0.28" d="M403.978 168.615C409.395 171.137 414.793 173.512 420.153 175.777C425.715 177.805 431.151 179.857 436.417 182.002C447.13 186.247 456.755 191.694 465.222 198.795C473.403 207.203 480.513 217.981 486.798 231.117C492.93 245.961 498.532 262.954 503.596 281.459C508.196 300.618 511.659 320.033 513.289 338.53C512.902 355.587 509.383 370.214 502.153 381.578C492.081 390.497 478.617 396.411 462.703 399.912C454.636 401.568 446.487 403.089 438.461 404.636C431.005 406.669 424.067 409.05 417.821 411.915C410.445 417.758 401.939 433.091 400.33 442.095C400.289 455.52 400.903 467.821 400.923 477.687C399.63 486.12 396.061 490.606 390.135 491.105C381.843 489.537 371.575 484.816 359.971 477.96C346.749 470.923 332.736 463.488 318.232 456.646C302.473 451.572 286.144 448.062 269.341 446.328C251.527 446.491 233.555 447.781 216.026 449.369C207.357 450.159 199.029 450.687 191.148 450.782C183.621 450.508 176.714 449.581 170.535 447.893C162.579 443.972 152.263 431.082 149.732 422.376C148.239 408.84 149.307 393.807 152.206 378.351C155.179 362.93 158.868 348.382 162.79 335.241C165.461 323.2 167.853 312.551 169.859 303.005C170.112 293.989 169.908 285.188 169.318 276.098C167.142 266.59 164.947 256.239 163.123 245.036C160.742 233.515 159.713 221.609 160.709 209.824C162.375 201.525 170.041 186.593 176.24 180.142C181.059 176.3 186.549 172.843 192.619 169.737C198.926 166.832 205.657 164.169 212.706 161.673C226.751 156.726 241.171 151.849 255.268 146.841C268.016 141.027 279.999 135.048 291.041 129.279C300.619 123.117 309.5 117.912 317.711 114.25C324.998 111.181 331.922 110.298 338.445 111.844C344.622 114.291 350.677 119.011 356.612 125.677C362.945 132.446 369.624 140.258 376.732 148.539C382.825 154.079 396.442 164.185 403.97 168.608" stroke="url(#paint10_linear_106_856)" stroke-width="2" stroke-linecap="round" stroke-dasharray="3 9"/>
<path opacity="0.48" d="M405.733 183.504C415.838 188.624 426.028 193.644 435.979 198.893C446.31 203.982 455.869 210.246 464.494 218.018C472.853 226.79 480.179 237.657 486.549 250.543C492.472 264.713 497.444 280.638 501.379 297.635C504.419 314.916 505.867 332.107 505.238 348.129C502.63 362.673 497.141 374.825 488.518 383.947C477.697 390.997 464.283 395.392 449.123 397.725C434.142 400.233 419.686 402.906 407.087 406.756C397.694 413.75 391.578 422.486 388.273 432.355C387.088 444.19 386.849 455.202 386.542 464.285C384.149 474.866 367.718 476.639 353.67 469.669C342.003 463.985 329.135 457.668 315.357 451.594C300.099 446.73 284.059 442.948 267.509 440.472C249.996 439.321 232.491 438.962 215.652 438.808C199.264 438.41 184.723 436.755 172.878 433.081C163.112 427.286 157.113 419.022 154.586 408.616C153.795 396.425 155.601 383.015 159.299 369.175C163.163 355.065 167.811 341.485 172.694 328.85C176.423 316.778 179.814 305.678 182.663 295.39C183.858 285.33 184.462 275.431 184.59 265.374C183.307 254.971 181.977 244.058 181.017 232.697C179.668 221.247 179.606 209.799 181.422 198.807C184.202 188.773 189.666 179.874 198.071 172.416C207.877 166.331 219.824 161.702 233.169 158.164C246.629 154.85 260.473 151.829 274.05 148.868C286.509 145.218 298.212 141.511 308.912 138.026C318.207 134.046 326.598 130.86 334.061 128.934C343.429 127.322 358.751 134.435 365.616 142.945C370.555 149.078 375.907 156.203 381.823 163.895C388.889 170.516 396.88 177.106 405.725 183.497" stroke="url(#paint11_linear_106_856)" stroke-width="2" stroke-linecap="round" stroke-dasharray="8 10"/>
<path opacity="0.38" d="M407.903 200.251C417.056 205.731 426.454 211.368 435.799 217.398C445.568 223.227 454.758 230.183 463.181 238.459C471.32 247.441 478.432 258.174 484.454 270.498C489.824 283.668 493.947 298.115 496.671 313.186C498.274 328.196 498.037 342.803 495.651 356.068C491.46 367.899 484.7 377.476 475.365 384.326C464.373 389.516 451.421 392.462 437.27 393.691C423.414 395.328 410.106 397.132 398.364 399.982C389.181 405.721 382.733 412.98 378.719 421.315C376.506 431.608 375.373 441.4 374.49 449.741C372.087 460.242 358.527 465.276 346.535 460.828C336.256 456.746 324.571 451.785 311.739 446.704C297.397 442.333 282.135 438.535 266.336 435.534C249.678 433.374 233.106 431.672 217.308 430.045C202.01 428.109 188.564 425.201 177.762 420.754C168.877 414.61 163.572 406.672 161.558 397.156C161.167 386.11 163.314 374.098 167.314 361.675C171.584 348.772 176.69 336.105 182.066 323.999C186.492 312.027 190.592 300.651 194.128 289.801C196.226 278.941 197.717 268.178 198.7 257.371C198.517 246.273 198.271 234.952 198.376 223.546C198.221 212.237 199.22 201.282 201.866 191.086C205.364 181.913 211.161 174.069 219.468 167.823C228.955 162.909 240.238 159.572 252.7 157.461C265.319 155.663 278.285 154.362 291.014 153.323C302.844 151.704 313.933 150.154 324.016 148.841C332.858 146.955 340.677 145.695 347.437 145.441C355.72 145.654 368.236 153.938 373.608 161.951C377.535 167.503 381.901 173.988 386.873 181.113C392.936 187.298 399.957 193.704 407.903 200.251Z" stroke="url(#paint12_linear_106_856)" stroke-width="2" stroke-linecap="round" stroke-dasharray="4 9"/>
<path opacity="0.38" d="M409.76 218.693C417.976 224.478 426.51 230.612 435.061 237.211C444.052 243.612 452.589 251.015 460.418 259.516C467.983 268.446 474.507 278.729 479.833 290.145C484.444 302.009 487.609 314.666 489.179 327.512C489.575 340.024 488.067 351.879 484.472 362.31C479.345 371.433 471.985 378.5 462.527 383.207C451.887 386.652 439.762 388.275 426.824 388.543C414.226 389.369 402.12 390.41 391.283 392.382C382.429 396.94 375.807 402.849 371.213 409.775C368.101 418.6 366.032 427.193 364.401 434.795C361.422 445.093 349.093 453.073 338.493 451.081C329.358 448.634 318.786 445.135 306.999 441.168C293.824 437.51 279.695 433.94 265.031 430.692C249.661 427.886 234.393 425.214 219.935 422.464C206.001 419.362 193.819 415.472 184.089 410.407C176.096 404.01 171.376 396.326 169.666 387.505C169.471 377.423 171.639 366.561 175.586 355.307C179.89 343.45 185.062 331.608 190.571 320.025C195.38 308.285 199.946 296.82 204.032 285.648C206.957 274.294 209.345 263.012 211.289 251.743C212.297 240.271 213.269 228.802 214.539 217.558C215.648 206.564 217.73 196.197 221.189 186.853C225.368 178.532 231.428 171.694 239.536 166.573C248.617 162.722 259.105 160.54 270.522 159.687C282.124 159.221 293.971 159.437 305.576 160.077C316.507 160.265 326.741 160.646 335.989 161.268C344.215 161.298 351.393 161.818 357.489 163.079C364.917 165.058 375.563 174.587 379.958 182.243C383.241 187.362 386.927 193.319 391.192 199.966C396.47 205.798 402.663 212.05 409.76 218.693Z" stroke="url(#paint13_linear_106_856)" stroke-width="2" stroke-linecap="round" stroke-dasharray="7 7"/>
<path opacity="0.93" d="M410.435 238.248C417.717 244.248 425.3 250.686 432.899 257.603C440.938 264.314 448.552 271.869 455.48 280.236C462.193 288.805 467.862 298.315 472.294 308.511C476.018 318.814 478.241 329.474 478.819 339.949C478.329 349.932 475.984 359.066 471.735 366.786C466.245 373.371 458.871 378.156 449.801 380.971C439.924 382.891 428.911 383.381 417.312 382.856C406.07 382.982 395.194 383.37 385.273 384.589C376.859 388.072 370.191 392.763 365.141 398.399C361.242 405.815 358.281 413.235 355.785 420.036C351.854 429.87 339.462 440.031 329.662 440.163C321.393 439.201 311.803 437.073 301.09 434.225C289.177 431.391 276.388 428.249 263.119 425.015C249.304 421.915 235.623 418.655 222.708 415.14C210.319 411.277 199.505 406.698 190.895 401.191C183.801 394.659 179.61 387.205 178.101 378.914C177.945 369.622 179.949 359.682 183.591 349.356C187.691 338.415 192.674 327.323 198.056 316.256C203.003 304.875 207.845 293.553 212.34 282.339C215.993 270.867 219.235 259.427 222.117 248.093C224.325 236.629 226.52 225.364 228.936 214.541C231.292 204.081 234.419 194.443 238.605 186.01C243.394 178.581 249.637 172.72 257.454 168.625C266.059 165.722 275.686 164.53 285.944 164.73C296.412 165.356 306.998 166.814 317.303 168.828C327.148 170.524 336.328 172.503 344.6 174.757C355.327 177.464 370.766 184.693 375.938 189.93C380.243 195.595 388.639 210.759 394.005 219.846C398.684 225.444 404.163 231.581 410.435 238.248Z" stroke="url(#paint14_linear_106_856)" stroke-width="2" stroke-linecap="round" stroke-dasharray="4 9"/>
<path opacity="0.71" d="M409.113 257.918C415.487 264.014 422.039 270.55 428.566 277.489C435.517 284.224 442.03 291.585 447.87 299.485C453.563 307.389 458.227 315.849 461.677 324.579C464.526 333.201 465.923 341.791 465.749 349.936C464.682 357.493 461.934 364.126 457.495 369.428C452.131 373.782 445.193 376.624 436.9 377.876C428.072 378.546 418.362 378.141 408.183 377.024C398.328 376.585 388.685 376.44 379.692 377.02C371.807 379.568 365.197 383.155 359.807 387.604C355.285 393.676 351.51 399.912 348.137 405.842C344.844 412.22 341.319 417.535 337.298 421.522C332.597 425.136 326.973 427.214 320.36 427.864C312.71 428.077 303.962 427.118 294.248 425.257C283.604 423.254 272.226 420.643 260.475 417.611C248.34 414.532 236.377 411.023 225.105 407.09C214.358 402.826 204.978 397.873 197.492 392.105C191.331 385.591 187.66 378.362 186.294 370.5C186.126 361.871 187.875 352.69 191.109 343.131C194.853 333.01 199.483 322.63 204.596 312.128C209.503 301.259 214.458 290.295 219.231 279.352C223.468 268.15 227.441 256.97 231.176 245.958C234.466 234.91 237.764 224.202 241.218 214.095C244.687 204.404 248.715 195.683 253.513 188.228C258.784 181.734 265.113 176.813 272.569 173.668C280.638 171.589 289.347 171.216 298.415 172.235C307.694 173.71 316.96 176.099 325.896 179.145C334.553 181.98 342.588 185.2 349.796 188.703C356.46 191.709 362.23 195.023 367.055 198.698C373.216 203.743 381.984 216.066 385.548 223.573C388.293 228.362 391.266 233.781 394.627 239.807C398.834 245.276 403.663 251.301 409.113 257.918Z" stroke="url(#paint15_linear_106_856)" stroke-width="2" stroke-linecap="round" stroke-dasharray="7 7"/>
<path opacity="0.46" d="M405.257 276.453C410.708 282.513 416.222 288.918 421.611 295.593C427.41 302.085 432.754 308.947 437.435 316.069C442.043 323.081 445.693 330.293 448.213 337.453C450.633 347.672 447.579 364.601 441.93 370.1C437.037 372.663 430.85 373.969 423.566 374.035C415.967 373.786 407.629 372.747 398.88 371.217C390.394 370.38 381.965 369.827 373.88 369.908C366.584 371.629 360.151 374.235 354.556 377.607C349.588 382.396 345.134 387.451 340.995 392.4C336.943 397.906 332.726 402.716 328.172 406.579C323.16 410.316 317.457 412.83 310.992 414.157C303.801 415.142 295.757 415.027 286.976 413.943C277.543 412.648 267.549 410.568 257.327 407.844C246.889 404.967 236.643 401.491 227.039 397.433C217.929 393.086 209.984 388.021 203.63 382.202C198.395 375.852 195.236 368.905 194.024 361.446C193.853 353.426 195.338 344.909 198.146 336.031C201.487 326.69 205.702 317.045 210.45 307.192C215.195 297.008 220.123 286.672 225.051 276.313C229.68 265.742 234.209 255.218 238.616 244.928C242.768 234.683 246.952 224.854 251.245 215.725C255.588 207.049 260.316 199.374 265.546 192.989C271.132 187.475 277.43 183.461 284.448 181.153C291.928 179.798 299.724 180.065 307.634 181.672C315.728 183.734 323.684 186.747 331.278 190.462C338.716 194.086 345.596 198.14 351.739 202.51C357.556 206.47 362.602 210.696 366.829 215.177C372.438 221.383 380.703 235.017 384.135 242.653C386.779 247.508 389.565 252.85 392.596 258.684C396.378 264.095 400.606 270.004 405.257 276.453Z" stroke="url(#paint16_linear_106_856)" stroke-width="2" stroke-linecap="round" stroke-dasharray="9 2"/>
<path opacity="0.25" d="M398.632 292.528C403.181 298.406 407.663 304.472 411.96 310.642C416.61 316.642 420.801 322.789 424.378 328.928C429.299 337.85 433.89 354.124 433.079 360.656C430.378 365.672 418.437 370.063 409.638 369.44C403.313 368.581 396.343 367.168 388.961 365.444C381.791 364.346 374.52 363.512 367.329 363.184C360.668 364.217 354.509 365.955 348.86 368.342C343.645 371.923 338.727 375.797 334 379.692C329.353 384.178 324.567 388.225 319.539 391.626C314.225 395.063 308.415 397.588 302.081 399.127C295.275 400.473 287.855 400.825 279.96 400.235C271.64 399.435 262.974 397.805 254.213 395.406C245.382 392.83 236.778 389.544 228.776 385.571C221.212 381.374 214.641 376.446 209.387 370.767C205.055 364.729 202.425 358.155 201.416 351.142C201.274 343.737 202.538 335.891 204.959 327.71C207.917 319.171 211.702 310.33 216.049 301.28C220.532 291.973 225.326 282.502 230.234 273.018C235.06 263.406 239.909 253.881 244.737 244.633C249.46 235.501 254.238 226.841 259.094 218.902C264.011 211.422 269.176 204.909 274.619 199.628C280.319 195.117 286.444 191.997 292.956 190.421C299.806 189.68 306.708 190.422 313.514 192.403C320.487 194.812 327.216 198.165 333.554 202.218C339.847 206.268 345.612 210.78 350.751 215.613C355.739 220.171 360.074 224.952 363.739 229.941C368.807 236.959 376.593 251.6 379.904 259.368C382.449 264.321 385.053 269.617 387.767 275.278C391.133 280.63 394.769 286.371 398.632 292.528Z" stroke="url(#paint17_linear_106_856)" stroke-width="2" stroke-linecap="round" stroke-dasharray="9 2"/>
<path opacity="0.21" d="M389.453 304.986C397.326 315.921 404.202 326.946 409.24 337.286C415.477 351.107 408.434 365.667 395.096 363.962C384.818 361.828 372.628 358.866 359.676 356.653C348.053 358.677 337.187 362.665 326.96 367.595C316.991 374.77 306.113 380.301 294.139 383.083C281.068 385.505 266.541 384.558 251.822 380.434C237.223 375.686 224.296 367.999 215.193 357.488C209.012 346.069 208.295 332.688 211.979 318.105C217.596 302.628 225.859 286.066 235.29 269.455C244.874 252.692 254.935 236.691 265.054 223.133C275.472 211.274 286.6 203.35 298.289 200.761C310.833 200.923 322.684 205.824 333.083 213.836C343.553 222.11 352.081 231.982 358.349 242.537C364.689 252.011 369.504 262.169 373.197 272.896C378.406 282.639 383.811 293.347 389.453 304.986Z" stroke="url(#paint18_linear_106_856)" stroke-width="2" stroke-linecap="round" stroke-dasharray="3 9"/>
<path opacity="0.08" d="M378.247 313.033C384.411 323.079 389.432 332.54 392.808 340.776C397.108 351.414 390.751 360.152 380.051 357.42C371.966 355.193 362.007 352.338 350.88 349.932C340.516 350.768 330.136 352.974 319.905 355.905C309.839 360.801 299.043 364.604 287.666 366.418C275.753 368.225 263.129 367.271 250.852 363.471C238.946 359.236 228.674 352.253 221.613 342.593C216.812 332.402 216.429 320.472 219.685 307.543C224.579 294.156 231.973 279.914 240.688 265.824C249.825 251.87 259.661 238.79 269.607 228.015C279.812 218.731 290.37 212.867 300.885 211.493C311.926 212.357 321.9 217.242 330.386 224.841C339.042 232.903 346.067 242.499 351.3 252.732C356.879 262.34 361.235 272.43 364.602 282.723C369.29 292.386 373.881 302.555 378.247 313.033Z" stroke="url(#paint19_linear_106_856)" stroke-width="2" stroke-linecap="round" stroke-dasharray="2 4"/>
<path opacity="0.78" d="M365.821 316.359C370.426 325.277 373.905 333.122 375.977 339.473C375.985 350.027 354.552 346.357 341.151 342.611C332.144 342.54 322.655 343.246 313.034 344.389C303.488 347.121 293.374 349.103 283.061 349.659C272.552 350.45 261.88 349.109 251.918 345.454C242.425 341.572 234.475 335.333 229.239 326.77C225.651 317.94 225.589 307.678 228.49 296.693C232.681 285.539 239.094 273.843 246.839 262.499C255.059 251.453 264.09 241.349 273.269 233.288C282.671 226.477 292.213 222.47 301.421 222.093C310.919 223.442 319.213 228.055 326.108 234.911C333.203 242.312 338.946 251.127 343.276 260.535C348.058 269.668 351.871 279.201 354.82 288.712C358.848 297.886 362.568 307.222 365.821 316.359Z" stroke="url(#paint20_linear_106_856)" stroke-width="2" stroke-linecap="round" stroke-dasharray="4 3"/>
<path opacity="0.2" d="M353.027 315.223C357.852 337.972 341.882 337.797 330.988 334.353C323.421 333.621 315.198 333.178 306.717 332.88C298.262 333.764 289.403 334.062 280.596 333.381C271.778 333.023 263.134 331.143 255.38 327.555C248.062 323.899 242.145 318.419 238.454 311.131C235.91 303.75 236.123 295.317 238.656 286.463C242.116 277.626 247.451 268.549 253.986 259.967C260.945 251.748 268.7 244.451 276.651 238.883C284.748 234.256 292.925 231.851 300.701 232.233C308.589 233.86 315.378 237.996 320.952 243.899C326.683 250.32 331.348 257.951 334.927 266.122C338.897 274.278 342.124 282.772 344.596 291.134C347.871 299.383 350.748 307.557 353.027 315.223Z" stroke="url(#paint21_linear_106_856)" stroke-width="2" stroke-linecap="round" stroke-dasharray="11 10"/>
<path opacity="0.43" d="M340.661 310.387C346.012 326.236 337.122 331.46 321.112 324.922C308.997 323.769 294.366 321.814 280.442 318.206C266.732 315.773 254.864 308.804 249.382 297.009C246.79 285.157 252.216 271.088 262.228 258.81C273.416 247.84 287.053 240.902 299.532 241.778C312.076 245.934 321.249 256.766 326.777 269.901C333.484 283.482 338.35 298.09 340.661 310.387Z" stroke="url(#paint22_linear_106_856)" stroke-width="2" stroke-linecap="round" stroke-dasharray="8 8"/>
<path opacity="0.85" d="M329.257 302.98C332.086 314.839 324.233 319.225 312.379 314.274C303.293 312.399 292.506 309.115 282.601 304.655C272.922 301.047 264.976 294.684 261.797 285.741C260.217 276.879 264.2 267.299 271.451 259.609C279.367 252.813 289.287 249.154 298.613 250.831C307.862 254.427 314.836 262.582 319.232 272.389C324.303 282.711 327.881 293.828 329.257 302.98Z" stroke="url(#paint23_linear_106_856)" stroke-width="2" stroke-linecap="round" stroke-dasharray="1 6"/>
<path opacity="0.55" d="M319.02 294.316C322.308 306.666 317.337 309.262 305.676 302.62C293.557 299.811 278.774 290.521 275.121 278.44C274.248 266.687 286.125 256.955 298.488 259.663C310.441 265.817 318.333 282.284 319.02 294.316Z" stroke="url(#paint24_linear_106_856)" stroke-width="2" stroke-linecap="round" stroke-dasharray="6 1"/>
<defs>
<linearGradient id="paint0_linear_106_856" x1="326.995" y1="16.1858" x2="326.995" y2="624.728" gradientUnits="userSpaceOnUse">
<stop stop-color="#1F89DB"/>
<stop offset="1" stop-color="#F42A8B"/>
</linearGradient>
<linearGradient id="paint1_linear_106_856" x1="345.881" y1="28.4856" x2="304.581" y2="613.23" gradientUnits="userSpaceOnUse">
<stop stop-color="#1F89DB"/>
<stop offset="1" stop-color="#F42A8B"/>
</linearGradient>
<linearGradient id="paint2_linear_106_856" x1="363.108" y1="41.9758" x2="283.857" y2="600.22" gradientUnits="userSpaceOnUse">
<stop stop-color="#1F89DB"/>
<stop offset="1" stop-color="#F42A8B"/>
</linearGradient>
<linearGradient id="paint3_linear_106_856" x1="378.556" y1="56.4715" x2="264.87" y2="585.869" gradientUnits="userSpaceOnUse">
<stop stop-color="#1F89DB"/>
<stop offset="1" stop-color="#F42A8B"/>
</linearGradient>
<linearGradient id="paint4_linear_106_856" x1="391.571" y1="73.2504" x2="247.536" y2="570.316" gradientUnits="userSpaceOnUse">
<stop stop-color="#1F89DB"/>
<stop offset="1" stop-color="#F42A8B"/>
</linearGradient>
<linearGradient id="paint5_linear_106_856" x1="402.896" y1="89.0798" x2="231.947" y2="553.705" gradientUnits="userSpaceOnUse">
<stop stop-color="#1F89DB"/>
<stop offset="1" stop-color="#F42A8B"/>
</linearGradient>
<linearGradient id="paint6_linear_106_856" x1="412.414" y1="105.241" x2="218.337" y2="536.275" gradientUnits="userSpaceOnUse">
<stop stop-color="#1F89DB"/>
<stop offset="1" stop-color="#F42A8B"/>
</linearGradient>
<linearGradient id="paint7_linear_106_856" x1="420.173" y1="121.629" x2="206.798" y2="518.241" gradientUnits="userSpaceOnUse">
<stop stop-color="#1F89DB"/>
<stop offset="1" stop-color="#F42A8B"/>
</linearGradient>
<linearGradient id="paint8_linear_106_856" x1="426.153" y1="138.124" x2="197.325" y2="499.814" gradientUnits="userSpaceOnUse">
<stop stop-color="#1F89DB"/>
<stop offset="1" stop-color="#F42A8B"/>
</linearGradient>
<linearGradient id="paint9_linear_106_856" x1="430.007" y1="155.022" x2="189.898" y2="481.174" gradientUnits="userSpaceOnUse">
<stop stop-color="#1F89DB"/>
<stop offset="1" stop-color="#F42A8B"/>
</linearGradient>
<linearGradient id="paint10_linear_106_856" x1="432.62" y1="171.049" x2="185.434" y2="461.491" gradientUnits="userSpaceOnUse">
<stop stop-color="#1F89DB"/>
<stop offset="1" stop-color="#F42A8B"/>
</linearGradient>
<linearGradient id="paint11_linear_106_856" x1="432.733" y1="186.872" x2="181.385" y2="443.182" gradientUnits="userSpaceOnUse">
<stop stop-color="#1F89DB"/>
<stop offset="1" stop-color="#F42A8B"/>
</linearGradient>
<linearGradient id="paint12_linear_106_856" x1="431.002" y1="202.101" x2="179.542" y2="424.731" gradientUnits="userSpaceOnUse">
<stop stop-color="#1F89DB"/>
<stop offset="1" stop-color="#F42A8B"/>
</linearGradient>
<linearGradient id="paint13_linear_106_856" x1="427.689" y1="216.589" x2="179.624" y2="406.798" gradientUnits="userSpaceOnUse">
<stop stop-color="#1F89DB"/>
<stop offset="1" stop-color="#F42A8B"/>
</linearGradient>
<linearGradient id="paint14_linear_106_856" x1="422.891" y1="230.131" x2="181.523" y2="389.526" gradientUnits="userSpaceOnUse">
<stop stop-color="#1F89DB"/>
<stop offset="1" stop-color="#F42A8B"/>
</linearGradient>
<linearGradient id="paint15_linear_106_856" x1="416.653" y1="242.564" x2="185.116" y2="373.028" gradientUnits="userSpaceOnUse">
<stop stop-color="#1F89DB"/>
<stop offset="1" stop-color="#F42A8B"/>
</linearGradient>
<linearGradient id="paint16_linear_106_856" x1="409.043" y1="253.713" x2="190.283" y2="357.401" gradientUnits="userSpaceOnUse">
<stop stop-color="#1F89DB"/>
<stop offset="1" stop-color="#F42A8B"/>
</linearGradient>
<linearGradient id="paint17_linear_106_856" x1="399.031" y1="262.69" x2="196.507" y2="341.732" gradientUnits="userSpaceOnUse">
<stop stop-color="#1F89DB"/>
<stop offset="1" stop-color="#F42A8B"/>
</linearGradient>
<linearGradient id="paint18_linear_106_856" x1="388.526" y1="270.012" x2="204.885" y2="327.14" gradientUnits="userSpaceOnUse">
<stop stop-color="#1F89DB"/>
<stop offset="1" stop-color="#F42A8B"/>
</linearGradient>
<linearGradient id="paint19_linear_106_856" x1="377.908" y1="276.414" x2="214.193" y2="314.934" gradientUnits="userSpaceOnUse">
<stop stop-color="#1F89DB"/>
<stop offset="1" stop-color="#F42A8B"/>
</linearGradient>
<linearGradient id="paint20_linear_106_856" x1="366.168" y1="278.906" x2="224.263" y2="301.889" gradientUnits="userSpaceOnUse">
<stop stop-color="#1F89DB"/>
<stop offset="1" stop-color="#F42A8B"/>
</linearGradient>
<linearGradient id="paint21_linear_106_856" x1="350.287" y1="281.359" x2="235.754" y2="291.702" gradientUnits="userSpaceOnUse">
<stop stop-color="#1F89DB"/>
<stop offset="1" stop-color="#F42A8B"/>
</linearGradient>
<linearGradient id="paint22_linear_106_856" x1="341.551" y1="284.169" x2="248.637" y2="285.986" gradientUnits="userSpaceOnUse">
<stop stop-color="#1F89DB"/>
<stop offset="1" stop-color="#F42A8B"/>
</linearGradient>
<linearGradient id="paint23_linear_106_856" x1="331.023" y1="284.543" x2="261.464" y2="280.995" gradientUnits="userSpaceOnUse">
<stop stop-color="#1F89DB"/>
<stop offset="1" stop-color="#F42A8B"/>
</linearGradient>
<linearGradient id="paint24_linear_106_856" x1="322.042" y1="284.742" x2="274.741" y2="278.968" gradientUnits="userSpaceOnUse">
<stop stop-color="#1F89DB"/>
<stop offset="1" stop-color="#F42A8B"/>
</linearGradient>
</defs>
</svg>
